<svg xmlns="http://www.w3.org/2000/svg" viewBox="0 0 96 96" fill="none" stroke="#3A3A3A" stroke-width="3" stroke-linecap="round" stroke-linejoin="round">
  <!-- Garden / barbecue area line icon -->
  <!-- Tree -->
  <path d="M18 38a12 12 0 1 1 24 0v2H18v-2z"/>
  <path d="M30 40v16"/>
  <!-- Grass tufts -->
  <path d="M10 66l3-3M10 66l-3-3M26 66l3-3M26 66l-3-3"/>
  <!-- Path stones -->
  <rect x="34" y="58" width="12" height="6" rx="1.5"/>
  <rect x="48" y="66" width="12" height="6" rx="1.5"/>
  <rect x="62" y="74" width="12" height="6" rx="1.5"/>

  <!-- Barbecue / oven -->
  <rect x="68" y="50" width="14" height="10" rx="2"/>
  <path d="M68 60h14M68 66h14M68 72h14"/>
  <path d="M75 44h8v6h-8z"/>
  <!-- Plants on right -->
  <path d="M86 64c-4 4-6 8-6 12M90 64c-2 6-2 10 0 14"/>
  <!-- Ground line -->
  <path d="M6 82H90"/>
</svg>
