<svg xmlns="http://www.w3.org/2000/svg" viewBox="0 0 96 96" fill="none" stroke="#3A3A3A" stroke-width="3" stroke-linecap="round" stroke-linejoin="round">
  <!-- Living room with TV, sofa, lamp -->
  <!-- TV + console -->
  <rect x="8" y="46" width="28" height="16" rx="2"/>
  <path d="M8 62h28M16 62v8M28 62v8"/>
  <!-- Picture frame -->
  <rect x="10" y="18" width="16" height="12" rx="2"/>

  <!-- Coffee table -->
  <ellipse cx="44" cy="68" rx="10" ry="3"/>
  <path d="M36 68l-2 8M52 68l2 8"/>
  <path d="M44 62v6"/>

  <!-- Plant on table -->
  <path d="M42 60c1.5-3 4-4 4-8 0 4 2.5 5 4 8"/>

  <!-- Sofa -->
  <rect x="54" y="54" width="30" height="16" rx="4"/>
  <path d="M54 62h30M60 54v16M78 54v16"/>
  <path d="M56 70v6M84 70v6"/>

  <!-- Window + lamp -->
  <path d="M74 14a10 10 0 0 1 10 10v14H64V24a10 10 0 0 1 10-10z"/>
  <path d="M74 14v24M64 26h20"/>
  <path d="M90 50h-8M86 50v26M82 76h8"/>
</svg>
