<svg xmlns="http://www.w3.org/2000/svg" viewBox="0 0 96 96" fill="none" stroke="#3A3A3A" stroke-width="3" stroke-linecap="round" stroke-linejoin="round">
  <!-- Simple living room line icon -->
  <!-- Frame / floor -->
  <path d="M6 78H90"/>
  <!-- Lamp -->
  <path d="M14 58h8"/>
  <path d="M18 58V78"/>
  <path d="M12 50h12l-4-10H16l-4 10z"/>

  <!-- Sofa -->
  <rect x="30" y="52" width="36" height="14" rx="3"/>
  <path d="M30 59h36"/>
  <path d="M36 52v14M60 52v14"/>
  <path d="M32 66v6M64 66v6"/>

  <!-- Kitchen block on right -->
  <rect x="72" y="48" width="12" height="22" rx="2"/>
  <rect x="74" y="60" width="8" height="8" rx="1"/>
  <rect x="52" y="40" width="12" height="10" rx="2"/>
  <path d="M58 40v-8"/>
  <path d="M52 48h12"/>

  <!-- Window with sun -->
  <rect x="6" y="12" width="16" height="14" rx="2"/>
  <circle cx="82" cy="18" r="4"/>
  <path d="M82 10v-3M82 29v-3M74 18h-3M93 18h-3M77 13l-2-2M87 23l-2-2M77 23l-2 2M87 13l-2 2"/>
</svg>
