<svg xmlns="http://www.w3.org/2000/svg" viewBox="0 0 96 96" fill="none" stroke="#3A3A3A" stroke-width="3" stroke-linecap="round" stroke-linejoin="round">
  <!-- Studio room line icon: bed + kitchenette + table -->
  <!-- Bed -->
  <rect x="6" y="52" width="36" height="16" rx="3"/>
  <path d="M6 60h36"/>
  <path d="M12 52v16M36 52v16"/>
  <path d="M10 68v6M38 68v6"/>

  <!-- Kitchen cabinets + sink -->
  <rect x="42" y="44" width="18" height="12" rx="2"/>
  <rect x="42" y="56" width="18" height="12" rx="2"/>
  <path d="M54 44v-6"/>
  <path d="M51 50h6"/>

  <!-- Window with sun on right -->
  <rect x="72" y="12" width="18" height="44" rx="2"/>
  <circle cx="81" cy="22" r="4"/>
  <path d="M81 14v-4M81 30v-4M73 22h-4M89 22h-4M75 16l-3-3M87 28l-3-3M75 28l-3 3M87 16l-3 3"/>

  <!-- Dining table and chairs -->
  <path d="M48 70h24"/>
  <path d="M60 62v16"/>
  <path d="M50 62l-3 12M70 62l3 12"/>
  <path d="M46 64h8M66 64h8"/>

  <!-- Wall picture -->
  <rect x="10" y="18" width="16" height="14" rx="2"/>
</svg>
